<?xml version="1.0" standalone="no"?><!DOCTYPE svg PUBLIC "-//W3C//DTD SVG 1.1//EN" "http://www.w3.org/Graphics/SVG/1.1/DTD/svg11.dtd"><svg t="1698474706372" class="icon" viewBox="0 0 1024 1024" version="1.1" xmlns="http://www.w3.org/2000/svg" p-id="932" xmlns:xlink="http://www.w3.org/1999/xlink" width="200" height="200"><path d="M822.774598 63.706638h-93.012421a51.485762 51.485762 0 0 0 1.386249-11.527752A52.288327 52.288327 0 0 0 678.96954 0H344.968732a52.288327 52.288327 0 0 0-52.166726 52.178886 51.485762 51.485762 0 0 0 1.386249 11.527752H201.175833A106.692507 106.692507 0 0 0 94.483327 170.362665v746.884028a106.692507 106.692507 0 0 0 106.692506 106.753307h621.598765a106.692507 106.692507 0 0 0 106.692507-106.692507V170.362665a106.692507 106.692507 0 0 0-106.692507-106.656027z m-64.679444 338.974279L438.905319 721.870752a26.192804 26.192804 0 0 1-36.917991 0l-136.192851-136.192852a26.095523 26.095523 0 1 1 36.893671-36.90583l117.794656 117.721696 300.706519-300.71868a26.095523 26.095523 0 0 1 36.905831 36.905831z" p-id="933" fill="#1296db"></path></svg>