<?xml version="1.0" standalone="no"?><!DOCTYPE svg PUBLIC "-//W3C//DTD SVG 1.1//EN" "http://www.w3.org/Graphics/SVG/1.1/DTD/svg11.dtd"><svg t="1698474824915" class="icon" viewBox="0 0 1024 1024" version="1.1" xmlns="http://www.w3.org/2000/svg" p-id="1274" xmlns:xlink="http://www.w3.org/1999/xlink" width="200" height="200"><path d="M518.0416 335.872c-64.768-2.7648-185.0368 3.9424-235.52 129.4336s-159.2832 481.28 242.4832 481.28 272.2816-376.4736 261.12-414.72a432.0256 432.0256 0 0 0-54.4256-113.7152c-22.6304-33.2288-53.2992-75.4176-213.6576-82.2784z" fill="#FDF29B" p-id="1275"></path><path d="M357.9904 641.0752C367.0016 420.5056 437.3504 360.0384 457.2672 337.92c-62.7712 7.3216-137.5744 35.328-174.592 127.5904-50.3296 125.4912-166.8096 521.8816 333.6192 473.7024-226.7648-45.4144-260.352-237.7728-258.304-298.1376z" fill="#F7DC86" p-id="1276"></path><path d="M525.1584 962.048c-129.6384 0-220.16-36.5568-268.8512-108.6464-79.6672-117.76-26.624-297.3184 12.1344-393.8304 39.168-97.6896 123.392-144.4864 250.2656-139.008 157.184 6.7072 196.4544 46.08 225.6896 89.088a451.7376 451.7376 0 0 1 56.32 117.76c0.3584 1.2288 0.8192 2.7648 1.4336 4.6592 32.9728 107.52 36.9664 198.0416 11.776 269.824a15.36 15.36 0 0 1-28.9792-10.24c15.7696-45.0048 26.4704-124.9792-12.1856-250.5728-0.6144-2.048-1.1264-3.6864-1.4848-5.12a417.8944 417.8944 0 0 0-52.48-109.4656c-19.712-29.0816-46.7968-68.9664-201.5744-75.6224C403.3536 346.368 331.2128 385.536 296.96 471.04c-29.3376 73.1136-89.5488 255.1296-15.36 365.1584 42.752 63.1296 124.6208 95.1296 243.4048 95.1296 102.8608 0 177.8176-25.6 222.7712-75.5712a15.36 15.36 0 0 1 22.8864 20.48c-50.8928 56.9344-133.5296 85.8112-245.504 85.8112z" fill="#000F04" p-id="1277"></path><path d="M536.576 196.4544c-7.2704-16.3328-60.416-119.0912-246.7328-123.2896a4.7104 4.7104 0 0 0-2.4576 8.7552c54.7328 28.3136 131.9424 90.4192 143.7696 185.088a5.12 5.12 0 0 0 5.12 4.1984c54.2208-1.3824 92.9792-59.0336 100.1984-70.5536a4.4032 4.4032 0 0 0 0.1024-4.1984z" fill="#BFE5BD" p-id="1278"></path><path d="M307.2 81.1008S447.3856 122.88 499.7632 195.84c-7.3728 27.3408-12.4928 28.9792-12.4928 28.9792l-108.9536-71.68L291.84 84.2752z" fill="#A2DD9E" p-id="1279"></path><path d="M435.9168 286.72a20.1216 20.1216 0 0 1-19.968-17.664c-12.8512-102.4-107.0592-158.464-135.5776-173.2096a19.8656 19.8656 0 0 1-10.24-22.6816 20.1216 20.1216 0 0 1 19.6608-15.36h0.4608c193.6896 4.3008 250.88 111.0016 260.4032 132.352a19.8144 19.8144 0 0 1-1.3312 18.5856c-7.936 12.6976-50.7392 76.1856-112.64 77.7728zM332.3904 91.4944c41.8304 29.3888 98.5088 82.8928 112.64 163.4304 36.6592-6.3488 65.28-43.264 75.0592-57.4464-11.5712-21.2992-58.2144-90.4704-187.6992-105.984z m190.1568 111.1552z" fill="#000F04" p-id="1280"></path><path d="M279.9104 220.16c108.4928-11.776 128.9728 73.8304 131.4304 126.8224a328.6528 328.6528 0 0 1 106.7008-11.1104l15.36 0.8192c-11.0592-57.6-44.3392-140.3904-114.3296-164.5568C343.04 145.8176 293.1712 192 275.456 212.6848a4.7104 4.7104 0 0 0 4.4544 7.4752z" fill="#BFE5BD" p-id="1281"></path><path d="M284.7744 204.4928s115.1488-31.1296 190.2592 24.7808a247.808 247.808 0 0 0 0 41.9328S370.0224 220.7744 279.9104 220.16c-11.9808-10.8032 4.864-15.6672 4.864-15.6672z" fill="#A2DD9E" p-id="1282"></path><path d="M411.3408 362.3424a15.36 15.36 0 0 1-15.36-14.6944c-1.3824-29.7984-8.7552-70.2976-35.84-93.5936C341.3504 238.1312 314.9312 231.8848 281.6 235.52a20.48 20.48 0 0 1-20.48-10.7008 19.712 19.712 0 0 1 2.5088-22.1696c19.968-23.3472 75.6224-74.3936 160.5632-45.056 89.9584 31.0272 117.76 142.6944 124.416 176.1792a15.36 15.36 0 0 1-16.0256 18.2272l-15.36-0.8192a307.6096 307.6096 0 0 0-101.6832 10.24 15.7184 15.7184 0 0 1-4.1984 0.9216zM306.7392 203.9808a116.8896 116.8896 0 0 1 73.1648 26.7264C409.6 256 421.1712 294.6048 424.96 327.68a355.7888 355.7888 0 0 1 89.1392-7.168C499.6608 264.6016 467.2512 204.8 414.3104 186.6752a109.5168 109.5168 0 0 0-107.5712 17.3056zM279.9104 220.16z" fill="#000F04" p-id="1283"></path><path d="M390.144 354.4576c46.08-18.8416 94.3616-20.0192 128-18.5856h0.4096a49.2544 49.2544 0 0 0-5.12-19.0464 5.12 5.12 0 0 0-0.7168-1.0752c-135.8848-168.5504-269.3632-46.7968-309.9648-1.6896a4.7616 4.7616 0 0 0 5.632 7.424c123.6992-48.0768 166.912-0.4608 181.76 32.9728z" fill="#BFE5BD" p-id="1284"></path><path d="M223.3856 306.1248s140.7488-94.1568 233.216 19.6096a239.9744 239.9744 0 0 1-67.072 21.248S360.0384 281.6 223.3856 306.1248z" fill="#A2DD9E" p-id="1285"></path><path d="M390.144 369.8176a15.36 15.36 0 0 1-14.0288-9.1136c-21.8112-49.0496-77.8752-57.6512-162.2016-24.832A20.48 20.48 0 0 1 189.44 328.4992a19.9168 19.9168 0 0 1 1.6384-24.6784C215.8592 276.48 281.1392 213.9136 362.752 213.9136h4.3008c56.32 1.536 109.5168 32.5632 157.5936 92.16a22.4256 22.4256 0 0 1 2.6624 4.2496 65.6384 65.6384 0 0 1 6.5024 24.9856 15.36 15.36 0 0 1-4.5056 11.4176 15.6672 15.6672 0 0 1-11.4176 4.5056H517.12c-48.0256-2.048-87.7568 3.6352-121.344 17.408a14.6944 14.6944 0 0 1-5.632 1.1776zM301.2096 285.5936c53.504 0 81.6128 25.6 96.256 49.7152a307.5584 307.5584 0 0 1 98.9184-15.36C455.68 271.36 411.6992 245.76 366.2336 244.6848c-47.5648-1.2288-89.9072 24.0128-119.296 48.2304a224.5632 224.5632 0 0 1 54.272-7.3216zM202.752 307.2z" fill="#000F04" p-id="1286"></path><path d="M502.3744 335.5136c5.5296 0 10.752 0 15.6672 0.3584 13.2096 0.5632 25.6 1.4336 36.9664 2.4576l62.1056-84.0704a4.4032 4.4032 0 0 0 0.7168-1.4848c2.7648-9.9328 34.0992-113.8176 148.48-172.4928a4.7104 4.7104 0 0 0-1.8944-8.9088c-57.856-3.7888-246.2208 0.3072-289.28 209.1008a4.7616 4.7616 0 0 0 0.3072 2.9184 493.4656 493.4656 0 0 0 26.9312 52.1216z" fill="#BFE5BD" p-id="1287"></path><path d="M747.776 78.6432s-185.1904 33.024-253.7472 229.5808c8.3456 27.2896 28.6208 21.4016 28.6208 21.4016s80.7936-166.4 232.2432-243.3536c4.864-2.6624-7.1168-7.6288-7.1168-7.6288z" fill="#A2DD9E" p-id="1288"></path><path d="M555.008 353.6896h-1.3312c-11.9296-1.024-23.808-1.792-36.3008-2.3552-4.7104 0-9.8304-0.3072-15.36-0.3584a15.36 15.36 0 0 1-13.056-7.4752 509.8496 509.8496 0 0 1-27.8016-53.76 19.9168 19.9168 0 0 1-1.3312-12.288C505.7024 56.32 705.0752 52.1216 765.1328 56.32a20.0192 20.0192 0 0 1 7.9872 37.5808c-107.8784 55.5008-137.4208 152.1664-140.4416 162.9696a20.48 20.48 0 0 1-3.1744 6.5536l-62.1568 84.0192a15.36 15.36 0 0 1-12.3392 6.2464z m-43.7248-33.3824h7.424c9.9328 0.4096 19.5072 0.9728 29.0304 1.7408l55.9104-75.4176a311.296 311.296 0 0 1 121.8048-160.1536c-73.1648 3.6864-199.68 33.9456-234.5984 193.7408 6.5536 14.336 13.3632 27.7504 20.4288 40.0896z m-21.0944-36.8128z m114.5856-38.4z" fill="#000F04" p-id="1289"></path><path d="M518.0416 335.872c54.9376 2.3552 94.6688 8.8576 124.0576 17.7152 14.4896-44.9024 56.32-128.3072 165.1712-125.2352a4.7104 4.7104 0 0 0 3.1232-8.4992C756.224 180.992 610.5088 126.976 517.12 335.872z" fill="#BFE5BD" p-id="1290"></path><path d="M807.2704 228.352a4.7104 4.7104 0 0 0 3.1232-8.4992c-1.792-1.28-3.7376-2.56-5.6832-3.8912-52.5824-13.4144-152.6272-16.4864-234.0352 112.64 2.304 4.1472 4.5568 8.1408 6.8608 12.032a394.24 394.24 0 0 1 64.5632 12.9024c14.4896-44.8512 56.1152-128.256 165.1712-125.184z" fill="#A2DD9E" p-id="1291"></path><path d="M642.0992 368.9984a16.7424 16.7424 0 0 1-4.4544-0.6656c-30.72-9.2672-71.0144-15.0016-120.2688-17.1008h-0.7168a15.36 15.36 0 0 1-13.3632-21.6064 388.5568 388.5568 0 0 1 48.9984-83.0976 15.36 15.36 0 0 1 24.064 19.1488 326.7072 326.7072 0 0 0-35.328 56.32 523.5712 523.5712 0 0 1 91.392 13.2096c15.9744-40.96 54.4256-106.752 138.5472-119.808-35.84-16.2304-97.8432-31.488-157.4912 13.6192a15.36 15.36 0 1 1-18.5344-24.5248c79.1552-59.8016 170.3424-35.84 224.3584 3.1232a20.0192 20.0192 0 0 1-12.4416 36.3008C709.12 240.9472 670.72 314.3168 656.7424 358.4a15.36 15.36 0 0 1-14.6432 10.5984zM754.8928 784.5888a15.36 15.36 0 0 1-13.6704-8.3968 542.0032 542.0032 0 0 0-47.104-75.3152 15.36 15.36 0 1 1 24.6784-18.2784 564.2752 564.2752 0 0 1 49.7664 79.6672 15.36 15.36 0 0 1-6.7072 20.48 15.36 15.36 0 0 1-6.9632 1.8432zM670.976 662.8352a15.36 15.36 0 0 1-11.6224-5.12c-18.0736-20.9408-38.3488-42.24-60.3648-63.2832a15.36 15.36 0 0 1 21.2992-22.1696c22.6304 21.7088 43.6224 43.7248 62.3104 65.3312a15.36 15.36 0 0 1-1.5872 21.6576 15.36 15.36 0 0 1-10.0352 3.584zM538.0608 535.1936a15.36 15.36 0 0 1-9.728-3.4816c-19.8144-16.2816-40.96-32.5632-62.4128-48.4352a15.36 15.36 0 0 1 18.176-24.7808c22.0672 16.2304 43.52 32.8704 63.744 49.4592a15.36 15.36 0 0 1-9.7792 27.2384zM436.1728 458.5984a15.36 15.36 0 0 1-8.704-2.7136c-28.8768-19.9168-53.1968-35.2256-68.5056-44.5952a15.36 15.36 0 0 1 16.0256-26.2144c15.6672 9.5744 40.448 25.2416 69.888 45.5168a15.36 15.36 0 0 1-8.704 28.0064zM682.24 935.0656a15.36 15.36 0 0 1-11.1616-4.8128c-20.992-22.2208-46.7456-49.2544-76.544-80.3328a15.36 15.36 0 0 1 22.1184-21.2992c29.9008 31.1808 55.7568 58.2656 76.8 80.5376a15.36 15.36 0 0 1-11.1616 25.9072zM554.0864 801.1264a15.36 15.36 0 0 1-11.008-4.6592c-19.8656-20.48-40.0384-41.4208-60.1088-62.1056a15.36 15.36 0 0 1 22.0672-21.4016c20.0704 20.48 40.2944 41.6256 60.1088 62.1568a15.36 15.36 0 0 1-0.3584 21.7088 15.36 15.36 0 0 1-10.7008 4.3008zM414.72 657.2032a15.36 15.36 0 0 1-11.008-4.6592c-20.48-20.9408-39.5264-40.6016-56.832-58.3168a15.36 15.36 0 0 1 22.016-21.4528l56.832 58.3168a15.36 15.36 0 0 1-11.008 26.112zM323.4304 563.8656a15.36 15.36 0 0 1-11.008-4.6592l-49.0496-50.1248a15.36 15.36 0 0 1 21.9136-21.504l49.152 50.176a15.36 15.36 0 0 1-11.008 26.112zM447.1808 920.4224a15.36 15.36 0 0 1-10.24-4.1472c-19.4048-18.2784-39.424-38.8608-59.4944-61.0816a15.36 15.36 0 1 1 22.8352-20.48c19.456 21.6064 38.912 41.5744 57.7024 59.2896a15.36 15.36 0 0 1-10.5472 26.5216zM321.3824 779.6736a15.36 15.36 0 0 1-12.1344-5.9904 1795.072 1795.072 0 0 1-56.32-76.8 15.36 15.36 0 0 1 25.2928-17.4592c17.664 25.6 36.2496 51.2 55.1424 75.4176a15.36 15.36 0 0 1-12.1344 24.7808zM761.2928 536.3712a15.36 15.36 0 0 1-11.8272-5.5296 584.4992 584.4992 0 0 0-63.0272-63.5392 15.36 15.36 0 1 1 20.48-23.04 610.3552 610.3552 0 0 1 66.56 66.9184 15.36 15.36 0 0 1-11.8272 25.1904z" fill="#000F04" p-id="1292"></path><path d="M650.24 432.9984a15.36 15.36 0 0 1-9.4208-3.2256c-21.7088-16.896-45.056-33.792-69.376-50.2272a15.36 15.36 0 1 1 17.2032-25.6c24.8832 16.8448 48.7936 34.0992 71.0656 51.2a15.36 15.36 0 0 1-9.472 27.8528zM782.5408 641.1776a15.0016 15.0016 0 0 1-6.7072-1.5872 15.36 15.36 0 0 1-7.1168-20.48c5.5808-11.4688 11.264-23.5008 16.896-35.84a15.36 15.36 0 0 1 27.904 12.9024c-5.7344 12.3904-11.52 24.576-17.152 36.2496a15.36 15.36 0 0 1-13.824 8.7552zM708.7616 776.0896a15.36 15.36 0 0 1-8.0896-2.304 15.36 15.36 0 0 1-5.12-21.1968c14.6432-23.552 29.44-49.3056 43.9808-76.8a15.36 15.36 0 0 1 27.136 14.4384c-14.8992 27.904-30.0544 54.272-45.056 78.3872a15.36 15.36 0 0 1-12.8512 7.4752zM599.8592 915.8656a15.36 15.36 0 0 1-10.5472-26.4704 550.8608 550.8608 0 0 0 59.2896-67.6864 15.36 15.36 0 0 1 24.5248 18.5344 587.776 587.776 0 0 1-62.6688 71.424 15.36 15.36 0 0 1-10.5984 4.1984zM389.5296 909.1584a15.36 15.36 0 0 1-9.9328-27.0848c19.6096-16.64 32.9216-28.7744 52.7872-48.1792a15.36 15.36 0 1 1 21.4528 21.9648c-20.1728 19.712-34.4064 32.7168-54.3744 49.664a15.36 15.36 0 0 1-9.9328 3.6352zM500.5824 801.1264a15.36 15.36 0 0 1-10.24-4.0448 15.36 15.36 0 0 1-0.9216-21.7088c17.8688-19.3536 35.84-40.0896 54.1696-61.44a15.36 15.36 0 0 1 23.5008 19.7632A1833.0112 1833.0112 0 0 1 512 796.3648a15.36 15.36 0 0 1-11.4176 4.7616zM616.2944 662.8352a15.36 15.36 0 0 1-12.1856-24.6784c16.7424-21.8112 33.4848-44.4416 49.7664-67.2768a15.36 15.36 0 0 1 24.9856 17.8688c-16.4864 23.1424-33.4336 46.08-50.3808 68.096a15.36 15.36 0 0 1-12.1856 5.9904zM707.1744 536.3712a15.0016 15.0016 0 0 1-8.5504-2.6112 15.36 15.36 0 0 1-4.1984-21.2992c25.6-37.6832 40.0896-61.952 40.2432-62.1568a15.36 15.36 0 1 1 26.2656 15.9232c-0.6144 0.9728-15.36 25.0368-40.96 63.3856a15.36 15.36 0 0 1-12.8 6.7584zM253.6448 832.8704a14.2848 14.2848 0 0 1-3.584-0.4096 15.36 15.36 0 0 1-11.3664-18.3808 196.608 196.608 0 0 1 10.24-31.5392 15.36 15.36 0 1 1 28.416 11.6736 165.3248 165.3248 0 0 0-8.6016 27.0336 15.36 15.36 0 0 1-15.104 11.6224zM280.9856 765.44a15.36 15.36 0 0 1-13.568-22.4768A437.2992 437.2992 0 0 1 302.08 688.384a15.36 15.36 0 1 1 25.0368 17.7664 414.3104 414.3104 0 0 0-32.256 51.2 15.36 15.36 0 0 1-13.8752 8.0896zM357.9904 656.4352a15.36 15.36 0 0 1-11.7248-25.2416c15.8208-18.8416 33.4848-38.5536 52.5824-58.5728a15.36 15.36 0 1 1 22.2208 21.2992c-18.6368 19.6096-35.84 38.8608-51.2 57.1904a15.36 15.36 0 0 1-11.8784 5.3248zM468.8896 539.5968a15.36 15.36 0 0 1-10.5984-26.4704c20.48-19.5072 42.1376-39.5264 64.6656-59.4432a15.36 15.36 0 1 1 20.48 22.9888c-22.272 19.6608-43.7248 39.424-63.8464 58.624a15.36 15.36 0 0 1-10.7008 4.3008z" fill="#000F04" p-id="1293"></path><path d="M588.4928 432.9984a15.36 15.36 0 0 1-9.9328-27.1872c42.5472-35.4816 72.192-57.9072 72.4992-58.112a15.36 15.36 0 0 1 18.4832 24.5248c-0.3072 0-29.3888 22.1696-71.3216 57.1904a15.36 15.36 0 0 1-9.728 3.584zM272.5888 574.0032a15.36 15.36 0 0 1-12.9024-23.7056 546.304 546.304 0 0 1 50.2272-65.8432 15.36 15.36 0 1 1 22.9376 20.48 501.76 501.76 0 0 0-47.3088 62.0032 15.36 15.36 0 0 1-12.9536 7.0656zM371.712 460.2368a15.36 15.36 0 0 1-10.24-26.88A654.4384 654.4384 0 0 1 435.2 377.3952a15.36 15.36 0 0 1 16.7936 25.6 625.7152 625.7152 0 0 0-70.1952 53.4528 15.36 15.36 0 0 1-10.0864 3.7888zM495.1552 375.296a15.36 15.36 0 0 1-7.2192-28.928 468.0192 468.0192 0 0 1 44.544-21.0432 15.36 15.36 0 1 1 11.008 28.672A447.3856 447.3856 0 0 0 502.3232 373.76a15.7184 15.7184 0 0 1-7.168 1.536z" fill="#000F04" p-id="1294"></path></svg>